<svg version="1.1" id="Layer_1" xmlns="http://www.w3.org/2000/svg" x="0" y="0" viewBox="0 0 339 424.9" xml:space="preserve"><path id="path49" class="st0" d="M106.4 292.2c-.6 1.1-1.6 1.8-2.3 2.8-4.3-2.7-8.6-5.4-13-8.1-4.3 2.7-8.6 5.4-12.8 8.1-1.1-.6-1.6-1.8-2.5-2.5 4.4-5.2 9.3-9.9 13.9-14.9 3.2-.7 4.5 1.9 6.1 3.6 3.4 3.8 7.1 7.7 10.6 11"/><path id="path51" class="st0" d="M6.3 301.6c11.7 13 22.9 26.3 34.6 39.3v-23.8c0-2.7.5-5.8 0-7.8-.5-2.1-3.6-2.6-4.4-4.2h14.4c-1.3 1.6-3.5 2.3-4.5 4.1V359c-.8.1-1.3-1.2-2-2-10.6-12.1-21.9-24.8-32.6-37v26.3c0 2.9-.6 6.3 0 8.6.5 2.1 3.6 2.6 4.4 4.2H1.8c1.3-1.5 3.5-2.3 4.5-4.1v-53.4z"/><path id="path53" class="st0" d="M333.3 314.4c-.8.3-1.2-.8-1.7-1.3-2.3-2.3-8.5-5.6-13.2-3.8-4.3 1.7-7.3 8.7-3.6 13.1 4 4.8 12.2 4.2 17.5 8.8 2.8 2.4 4.7 5.9 4.7 11.1 0 12.2-9.6 18.6-22.1 15.7-1.1-.3-3.2-1.2-4.4-1.1-1.3.1-1.8 1.8-3 1.9v-15c1.6 1.8 2.1 3.9 3.8 5.5 2.7 2.7 7.8 3.4 11.6 3 5.3-.5 7.9-5.5 7.5-10.8-.5-6.5-8.2-6.5-13.9-9.1-4.3-1.9-8.4-5.3-9.7-10.3-1.5-5.8.4-11.7 3.6-15 2.5-2.6 6.4-4.8 12.2-4.4 1.3.1 2.6.5 3.9.8 1 .3 2.8 1 3.8.9 1.3-.1 1.6-1.4 2.7-2 .7 2.6.1 8.2.3 12"/><path id="path55" class="st0" d="M138.3 302.6c8.4 15 16.7 30 24.9 45.1 8.8-14.8 17.1-30 25.7-44.9.3 14 .2 30.2.2 45.1 0 2.1-.4 4.6 0 6.4.4 2.1 2.9 3.1 3.6 4.7h-13.8c-.3-.7.9-1.5 1.6-2.2.8-.8 1.5-1.5 1.9-2.4v-28c-6.4 10.8-13 22.9-19.4 34.3-6.6-11-12.7-22.6-19.3-33.7v20.7c0 2.3-.4 5 0 6.7.5 2.2 3.7 2.7 4.5 4.4h-14.3c-.2-.7 1.4-1.3 2.2-1.9.9-.7 1.6-1.6 2.2-2.3v-52z"/><path id="path57" class="st0" d="M84 304.6c4.3 0 9.9.4 14.4-.2.2.6-1.1 1.3-1.7 2-.8.8-1.3 1.7-1.9 2.5V349c0 1.8-.3 4.1 0 5.6.4 2 2.9 2.8 3.4 4.5H84.6c-.4-.7.9-1.4 1.6-2 .7-.8 1.2-1.6 1.7-2.4v-40.1c0-1.9.3-4.1 0-5.6-.5-1.8-2.7-2.9-3.9-4.4"/><path id="path59" class="st0" d="M229.5 305.2c10.9-.4 22.5 0 33.7-.1v12.2c-1.6-1.3-1.7-5-3.8-6.1s-6.6-.3-9.7-.3h-9.9v17.8h9.5c3.3 0 7 .6 9.4 0 1.7-.4 2.1-2.7 3.4-3.1v11.7c-1 .2-1.9-2.6-3.3-3-2.3-.7-6.3 0-9.6 0h-9.4c-.3 2.7-.2 5.6-.2 8.6 0 3.3-.9 8.9 1.4 9.9 2 .8 5.6.2 8.3.2 2.7 0 5.9.6 8.5 0 2.9-.6 3.2-4.7 5-6.9.4 4 .1 8.6.2 12.8h-34.5c-.1-.7 1.1-1 1.9-1.6.8-.5 1.8-1.2 2-1.9.9-2.4.2-7.9.2-11.6v-23.3c0-3.9.7-8.6 0-11.6-.2-1.5-2.5-2.7-3.1-3.7"/><g><path id="path11" class="st0" d="M193.3 135.1c-.3 3.5-.1 8.8-.2 13-3.5 2.1-6.8 4.3-10.5 6.3-3.5-2.1-6.8-4.3-10.5-6.3 6.9-4.5 14.2-8.5 21.2-13"/><path id="path13" class="st0" d="M146.8 135.6c6.9 4 13.6 8.3 20.6 12.4-3.2 2.5-7 4.4-10.5 6.6-3.5-2-6.8-4.1-10.1-6.1v-12.9z"/><path id="path15" class="st0" d="M180.4 155.8c-3.2 2.4-7.1 4.3-10.5 6.6-3.6-2.1-7.4-4.1-10.6-6.6 3.5-2 6.9-4.3 10.5-6.3 3.7 1.9 6.9 4.4 10.6 6.3"/><path id="path17" class="st0" d="M193.1 163.9c-3.5 2.1-6.9 4.3-10.5 6.3-3.4-2.1-6.8-4.3-10.5-6.3 6.6-4.6 13.9-8.5 20.7-12.9.5 4.1.2 8.8.3 12.9"/><path id="path19" class="st0" d="M146.8 151.2c6.9 4.2 14.1 8.1 20.6 12.7-3.7 2-7 4.3-10.6 6.3-3.3-2.1-6.7-4-10-6.1v-12.9z"/><path id="path21" class="st0" d="M193.1 179.8c-3.5 2.1-6.9 4.3-10.5 6.3-3.4-2.2-7-4.2-10.5-6.4 6.8-4.4 13.9-8.4 20.7-12.7.5 3.9.2 8.6.3 12.8"/><path id="path23" class="st0" d="M146.8 167.1c6.9 4.2 14.1 8.1 20.6 12.7-3.7 1.9-7 4.3-10.6 6.3-3.3-2.1-6.7-4.1-10-6.1v-12.9z"/><path id="path25" class="st0" d="M180.4 187.2c-3.3 2.4-7.1 4.3-10.5 6.6-3.7-2-6.9-4.3-10.6-6.3 3-2.6 7-4.3 10.3-6.6 3.9 2 7.1 4.5 10.8 6.3"/><path id="path27" class="st0" d="M182.8 201.8c-3.6-2.1-7.1-4.3-10.6-6.4 6.8-4.4 13.8-8.5 20.7-12.7.4 3.9.1 8.4.2 12.5-3.1 2.6-7 4.2-10.3 6.6"/><path id="path29" class="st0" d="M146.8 182.8c6.9 4.2 14.1 8.1 20.6 12.7-3.6 2-7 4.2-10.5 6.3-3.5-2.1-7-4.2-10.1-6.6v-12.4z"/><path id="path31" class="st0" d="M219.2 201.4c-.1 3.2 4.5 3.6 5.1 1 .6-2.4-1.1-3.6-2.9-3.4-1.8.2-2.2 1.2-2.2 2.4m74.9-7.6c1.9-.4 2.4 1.2 4 1.9.6.3 1.5.2 1.9.5 1.3.7 2 2.3 2.4 3.4-5.1 1.3-10.1 2.6-15.1 4-1.2-.4-2.4-.9-3.5-1.4-1.8 1.3-2.9 3.4-4.5 4.8-2-.7-3.9-1.5-5.8-2.4-1.8 1.3-2.9 3.3-4.5 4.8-2-.7-3.9-1.5-5.8-2.4-1.8 1.3-2.8 3.3-4.3 4.8-1.9-.7-3.7-1.7-5.6-2.4-1.9 1.3-2.8 3.5-4.7 4.8-1.8-1-4-1.6-5.8-2.6-.7 1-1.9 2.1-2.9 3.2-.8 1-2.5 2.4-1.4 3.7 2.4-.8 3-3.4 4.8-4.7 2 .7 4 1.5 5.8 2.4 1.7-1.4 2.8-3.4 4.5-4.8 2 .7 3.8 1.6 5.6 2.4 1.8-1.3 2.7-3.6 4.5-4.8 1.8.9 3.8 1.6 5.6 2.4 1.8-1.4 2.8-3.5 4.7-4.8 1.8.9 3.8 1.6 5.6 2.4 1.8-1.3 2.9-3.4 4.5-4.8 2.8 2 7.2.2 10.8-.8 2.8-.8 5.3-1.6 7.7-2.1-.3 5.4-6.2 6.2-10.6 7.9-19.6 7.7-40.5 15.7-59.8 23-2.8 6.4-8.4 11.4-14.5 15.3-1.8 1.2-4.5 3.1-6.3 3.5-2.3.5-5.1.2-7.6.2h-7.7V205c2-.4 4.2.5 6.4 0 1.4-.3 3.2-1.9 4.7-2.9 1.6-1 3.1-1.9 4.5-2.9 2.8-1.8 6.1-4.7 9.6-5.1 7.4-1 5.9 7.4 10.5 8.2 1.8.3 4.9-.4 7.4-.6 14.8-1.3 29-2.9 43.9-4.2 2.3-.2 5.3 0 7.2-.6 1.7-.5 2.3-2.3 3.8-3.1"/><path id="path33" class="st0" d="M178.6 201.9c-5.5.4-11.7.1-17.5.2 2.7-1.9 5.7-3.5 8.5-5.3 3.3 1.4 5.9 3.6 9 5.1"/><path id="path35" class="st0" d="M193 198.2c.4 1 .1 2.6.2 3.9h-6.1c1.7-1.5 4-2.5 5.9-3.9"/><path id="path37" class="st1" d="M221.4 199.1c1.8-.3 3.5.9 2.9 3.4-.7 2.7-5.2 2.2-5.1-1 0-1.3.4-2.3 2.2-2.4"/><path id="path39" class="st0" d="M196 169.8v-19.5c5.9-2.4 11.3-5.2 17.5-7.2 1 1 .1 4 .6 5.5 4.6-1.5 7.8-4.3 12.5-5.6.4.9-.1 2.8.3 3.7 3.6.5 7.5-1.4 9.3-3.5 2-2.4 1.2-5.6-.6-7.7-3.2-3.8-9.7-6.3-15.1-8.5-1.7-.7-4.9-1.6-5-2.9-.1-1.3 1.5-1.9 2.4-1.9 3-.1 6.5.9 9.3 1.6 8.1 2 16.8 6.1 20.8 11.6 3.6 5.1 1.1 12.5-2.1 16.1-5.4 6.1-13.7 9-22.8 11.4-8.9 2.2-17.7 4.7-27.1 6.9"/><path id="path41" class="st0" d="M127.3 150.9c3-.1 5.4-2 7.7-3.2 2.4-1.3 4.8-2.9 7.9-3.4 1.3 2.1.8 5 .8 7.7v25.3c-3.7.6-8.7 1.9-13.8 3.1-7.2 1.6-16.6 2.1-18.2 8.7-1.5 6.2 6.7 9.6 11.7 9.2 1.1-1.3-.1-4.9.8-6.4 2.2.2 3.9 1.7 5.6 2.7 1.8 1.1 3.4 2.2 5.2 3.2 3.4 2.1 6.7 4.5 10.8 5.9 1.1-.9 0-4 .8-5.1 2.5.3 4.2 1.9 5.9 3.1 1.8 1.1 3.6 2.2 5.5 3.4h17.1v46.2h-32.7c-.3 2.4-.2 5.1-.2 8 0 2.7.6 7.2-1.1 8.4-1.4.9-5 .5-7.1.5h-15c-2.7 0-5.8.4-6.3-1.1-.6-2 3.8-4.5 5.2-5.5 2.4-1.7 4.3-3 6.3-4.7.2-9-.4-18.8.3-27.2h18.2c2.1 0 4.8.4 4.5-1.4-.2-1.3-3-1-5.5-1h-6.3c-4.5 0-10.7-.9-12.5.6-1.9 1.6-1.1 7.1-1.1 10.1v11.1c-12.7-.5-22-5.7-30.1-11.3-7.9-5.5-15.2-12.8-19-22.4 2.2-1 9.1 1.2 9.3-1.3.2-1.9-3.3-1.3-5.1-1.3-2.5 0-4.4-.1-6.1.2-3.1 2.5.9 10.2-2.4 12.1-1.7 1-8.3.3-10.8.3-4.1 0-7.7-.1-10.9 0-1.7.1-4.3.5-4.7-.6-.7-2 4.5-4.6 5.5-5.1 2.4-1.5 4.4-2.7 6.4-4.2v-10.1c0-2.9-.7-7.6.6-9.3 2.2-2.8 10.4-.2 14.5-1.1.7-13.4 5.4-23.8 12.1-31.5 6.6-7.6 15.7-13.7 27.5-15.6.5 1.3-.4 4 .6 4.8 5.1-1.7 11.1-5.9 16.1-8 3.1-1.5 1.3 4.1 2 6.2"/><path id="path43" class="st0" d="M184.6 260.1c3.5.4 3.9-5.6 0-5-3.2.7-2.4 4.8 0 5m-6.9-55.2h16.1v46.2h-7.4c2.1.8 3.7 1.7 4.5 3.4 2.5 5-1.4 9.6-5.8 9.7-7.5.1-9.1-11.6-1.4-12.9-1.7-.4-4.1-.1-6.1-.2 0-15.2-.3-31.1.1-46.2"/><path id="path45" class="st0" d="M232.4 237.4c2.6.1 5.7-.2 8 .2 2 2.2 1.3 5.6 1.3 8.8 0 3.2-.7 7.2 0 10.1.4 1.6 2.8 3.3 4.5 5 1.2 1.2 4.4 3.5 4 5.5s-9.5 1.1-12.5 1.1c-2.7 0-11.1 1-12.5-1-1-1.4-.5-5.8-.5-7.7v-8.2c-2.4-.4-5.4-.1-8-.2 5.9-3.9 11.4-8.1 15.7-13.6"/><path id="path47" class="st1" d="M184.6 255.1c3.9-.7 3.5 5.4 0 5-2.4-.2-3.2-4.3 0-5"/><path id="path61" class="st0" d="M161.7 9.8c-2.4 1.9-5.7 3.7-8.7 5.8-.9.6-1.9 1.8-2.7 1.9-1.2.2-5.8-1.6-7.2-1.9-16.2-4.3-38.6-5.6-57.7-2.9C91.2 8 99.3 4 106.3.5c1.4-.7 6.1-.4 8.7-.3 17.6.7 34.1 4.4 46.7 9.6"/><path id="path63" class="st0" d="M253.3 12.7c-26.8-1.1-50.4 1.1-69.3 8-19 7-33.5 18.4-46.3 31.2-3.6-1.3-7.5-2.4-11.7-3 .1-1.1 1.3-1.8 1.9-2.6 5.1-5.6 11.1-11 17.2-15.9 7-5.6 14.4-11 22.7-15.1 17.4-8.6 36.8-12.7 61.9-13.8 1.4-.1 2.9-.4 4.5-.2 1.5.3 3.5 1.6 5.1 2.6 4.9 2.6 10.3 5.6 14 8.8"/><path id="path65" class="st0" d="M144.1 22c-2.1 2.2-5.4 4.5-8.2 6.9-1 .9-1.9 2.1-2.7 2.3-1 .2-3-.4-4.7-.6-23.6-3-52.4-.4-70 5.9-.1-.5.8-1.4 1.4-2.1 3.2-3.5 6.5-6.6 10.3-10 1.3-1.2 3-3.2 4.3-3.7 1.6-.6 4.2-.7 6.4-1 19.9-2.5 45.9-2.2 63.2 2.3"/><path id="path67" class="st0" d="M125.9 37.4c-.7 2-2.4 3.3-4.2 5.3-.8.8-3.4 4.5-4.7 4.8-1.2.3-3.7-.4-5.5-.5-29-2-53.4 6.1-72.1 15.1 3.3-6.3 7.5-11.8 11.6-17.4 20.1-6.8 48.7-11.8 74.9-7.3"/><path id="path69" class="st0" d="M165.4 75.9c-2.5 2.8-5 5.5-7.2 8.5C144 69.8 118.7 62.6 89 66.1c-26.2 3.2-47.4 13-63.1 25.7C28 85.1 30.7 79 33.5 73c17.4-10.1 38.6-17.7 65.1-19 29.5-1.2 52.1 7.6 66.8 21.9"/><path id="path71" class="st0" d="M153.9 90.7c-2 3-3.9 6.3-5.5 9.8-2.2-1.6-4-3.6-6.3-5.3-6.5-5-14.8-8.8-24.8-10.5-14-2.3-29.4-.5-41.7 3-24.1 7-43.5 20-57.1 37 .6-4.9 1.5-10.3 2.6-15.3.3-1.6.4-3.6 1-4.8.4-.8 2.4-2.1 3.7-3.2 9-7.3 18.7-13.2 29.9-18.2 12.9-5.7 27.2-10 44.2-10.8 23.8-1 42.1 6.4 54 18.3"/><path id="path73" class="st0" d="M145.7 106.8c-1.5 3.7-2.6 7.8-3.4 12.2-.7.3-1.2-.7-1.4-1-6.9-8.1-15.9-14.4-29.4-16.3-15-2-29.7 2.2-40.9 6.9-16.5 7-31.4 17.9-42.6 30.6-3.8 4.4-7.1 9.1-10.1 13.8-.4-4.2-.3-9.7-.2-14.5.1-1.6-.2-3.5.2-4.7.3-1 2.5-3 3.7-4.3 8.8-9.6 19.4-17.9 30.9-24.4 13.6-7.8 29-14.1 48.3-15 20.1-.9 34.9 6.3 44.9 16.7"/><path id="path75" class="st0" d="M280.3 36.5c-21.4-4.4-48.1-8.9-72.2-4.5-22.5 4.1-39.6 14.4-52.3 27.8-3.5-1.6-6.6-3.7-10.5-5 17.3-20 42.9-34 79.3-35.7 10.7-.5 22 .3 31.7 1.6 3.2.5 7 .5 9.5 1.4 1.3.5 2.8 2.2 4 3.4 1.4 1.2 2.6 2.5 3.7 3.5 2.7 2.5 5 5.1 6.8 7.5"/><path id="path77" class="st0" d="M299.6 62.9c-19.9-7.4-41.3-15.3-68.5-15.3-27 0-46 10.5-60.2 23.6-3-2.3-5.5-5-8.7-7.1 14.7-15.1 35.6-26.5 65-27.8 20.8-1 39 3.4 55 8.5 2.4.8 5.2 1.2 6.8 2.3 2.2 1.4 4.1 5.3 5.6 7.6 1.9 2.8 3.7 5.5 5 8.2"/><path id="path79" class="st0" d="M319.7 121.1c-.9.3-1.4-.7-1.9-1.1-10.4-7.9-21.3-15.4-33.5-21.9-12.9-6.9-27.5-13-45.2-13.7-19-.8-34 4.7-44.9 13.8-10.7 9-18.1 21.5-18.5 40.4 0 1.1.5 2.7.2 3.9-.6 1.7-4.9 2.6-5.9 4-1.9-.9-3.6-2-5.3-3.2-.7-22.3 6.4-37.9 17.9-49.4 10.9-10.9 27.3-19.7 47.1-20.7 19.7-1.1 35.6 4 49.5 10 14 6 26.4 14 37.5 22 1.2 5.2 2.1 10.6 3 15.9"/><path id="path81" class="st0" d="M321.1 149.6c-.7.3-1.2-.6-1.6-1-16.3-16.3-33-33.3-57.3-41.7-12.5-4.3-31-6.2-44.4-1.9-12.7 4.1-21.6 12.8-24.1 26.9-4 2.3-8.1 5.3-11.9 7.2.5-30.2 21.1-46.4 49.2-47.8 32.8-1.5 55 12.3 72.7 26.9 4.3 3.5 8.9 7.5 13.2 11.8 1.2 1.2 3.8 3.2 4 4.2.6 2.1.2 5.2.2 7.7v7.7z"/><path id="path83" class="st0" d="M313.1 92.2c-13.2-7.8-27.2-14.9-43.6-19.9-15.5-4.8-36.9-8.7-55.3-4.2-16.6 4-29.4 13.2-38.9 24.6-9.6 11.6-16.5 26.3-16.9 46.5-4-1.9-7.7-4.2-11.3-6.6.2-5 1.5-9.8 2.6-14.5 1.4-5.9 2.9-11.3 5.8-16.7 6-11.2 13.5-20.1 23-27.8 12.9-10.5 28.2-17.5 49.7-18.5.3 0 .3-.2.6-.2 31.1 0 56.7 9.7 77.8 20.8 2.4 5.2 4.7 10.7 6.5 16.5"/></g><g><path class="st0" d="M21.5 406.8c0 5.7 0 10.4.3 12.9.2 1.7.5 3 2.3 3.3.8.1 2.1.2 2.7.2.4 0 .5.2.5.4 0 .3-.3.5-.9.5-3.3 0-7-.2-7.3-.2s-4 .2-5.8.2c-.7 0-.9-.1-.9-.5 0-.2.1-.4.5-.4.5 0 1.2-.1 1.8-.2 1.2-.2 1.5-1.5 1.7-3.3.3-2.5.3-7.2.3-12.9v-25.1l-8.8.1c-3.7.1-5.1.5-6 1.9-.7 1-.8 1.4-1 1.8-.2.5-.4.6-.6.6s-.3-.3-.3-.6c0-.6 1.2-5.7 1.3-6.2.1-.4.4-1.1.6-1.1.4 0 1 .6 2.6.7 1.7.2 4 .3 4.7.3h22.2c1.9 0 3.3-.1 4.2-.3.9-.1 1.4-.3 1.7-.3.3 0 .3.4.3.7 0 1.8-.2 5.9-.2 6.5 0 .5-.2.8-.4.8-.3 0-.4-.2-.5-1l-.1-.7c-.2-1.8-1.6-3.1-7.3-3.3l-7.5-.1-.1 25.3zM64.7 378.4c13.3 0 23.3 8.4 23.3 22.2 0 13.3-9.4 24.3-23.7 24.3-16.2 0-23-12.6-23-23.3 0-9.7 7-23.2 23.4-23.2zm1.2 44.1c5.3 0 16.4-3.1 16.4-20.3 0-14.2-8.7-21.9-18-21.9-9.9 0-17.3 6.5-17.3 19.5-.1 13.8 8.2 22.7 18.9 22.7zM98.9 396.4c0-9.2 0-10.9-.1-12.8-.1-2-.6-3-2.5-3.4-.5-.1-1.5-.2-2-.2-.2 0-.5-.1-.5-.4 0-.4.3-.5.9-.5 2.7 0 6.3.2 6.8.2s4.1-.2 5.9-.2c.7 0 .9.1.9.5 0 .2-.2.4-.5.4-.4 0-.8.1-1.5.2-1.6.2-2.1 1.3-2.2 3.4-.1 1.9-.1 3.6-.1 12.8v8.3c0 8.5 1.9 12.2 4.4 14.6 2.9 2.7 5.6 3.3 9 3.3 3.6 0 7.2-1.7 9.3-4.3 2.7-3.4 3.4-8.4 3.4-14.5v-7.4c0-9.2 0-10.9-.1-12.8-.1-2-.6-3-2.5-3.4-.5-.1-1.5-.2-2-.2-.2 0-.5-.1-.5-.4 0-.4.3-.5.9-.5 2.7 0 5.9.2 6.3.2.4 0 3.2-.2 5-.2.7 0 .9.1.9.5 0 .2-.2.4-.5.4-.4 0-.8.1-1.5.2-1.6.4-2.1 1.3-2.2 3.4-.1 1.9-.1 3.6-.1 12.8v6.3c0 6.4-.7 13.5-5.5 17.7-4.3 3.8-8.7 4.4-12.2 4.4-2 0-8-.2-12.2-4.2-2.9-2.8-5.2-6.9-5.2-15.6v-8.6h.2zM151.5 396.4c0-9.2 0-10.9-.1-12.8-.1-2-.6-3-2.5-3.4-.5-.1-1.5-.2-2-.2-.2 0-.5-.1-.5-.4 0-.4.3-.5.9-.5 2.7 0 6.4.2 6.7.2.7 0 5.2-.2 7-.2 3.7 0 7.7.4 10.9 2.6 1.5 1.1 4.1 4 4.1 8.1 0 4.4-1.8 8.8-7.2 13.7 4.9 6.2 8.9 11.5 12.3 15.2 3.2 3.4 5.8 4 7.2 4.3 1.1.2 2 .2 2.3.2s.5.2.5.4c0 .4-.4.5-1.4.5h-4.2c-3.3 0-4.8-.3-6.3-1.1-2.5-1.4-4.6-4.3-8-8.7-2.5-3.3-5.3-7.2-6.5-8.8-.2-.2-.4-.4-.8-.4l-7.3-.1c-.3 0-.4.2-.4.5v1.4c0 5.7 0 10.4.3 12.9.2 1.7.5 3 2.3 3.3.8.1 2.1.2 2.7.2.4 0 .5.2.5.4 0 .3-.3.5-.9.5-3.3 0-7-.2-7.3-.2-.1 0-3.8.2-5.6.2-.7 0-.9-.1-.9-.5 0-.2.1-.4.5-.4.5 0 1.2-.1 1.8-.2 1.2-.2 1.5-1.5 1.7-3.3.3-2.5.3-7.2.3-12.9l-.1-10.5zm4.8 5.1c0 .3.1.5.4.7.9.5 3.6.9 6.2.9 1.4 0 3.1-.2 4.4-1.1 2.1-1.4 3.6-4.6 3.6-9.1 0-7.4-3.9-11.9-10.3-11.9-1.8 0-3.4.2-4 .4-.3.1-.5.4-.5.7v19.4h.2zM201.2 406.8c0 5.7 0 10.4.3 12.9.2 1.7.5 3 2.3 3.3.8.1 2.1.2 2.7.2.4 0 .5.2.5.4 0 .3-.3.5-.9.5-3.3 0-7-.2-7.3-.2s-4 .2-5.8.2c-.7 0-.9-.1-.9-.5 0-.2.1-.4.5-.4.5 0 1.2-.1 1.8-.2 1.2-.2 1.5-1.5 1.7-3.3.3-2.5.3-7.2.3-12.9v-10.4c0-9.2 0-10.9-.1-12.8-.1-2-.7-3-2-3.3-.7-.2-1.4-.2-1.8-.2-.2 0-.5-.1-.5-.4 0-.4.3-.5.9-.5 2 0 5.7.2 6 .2s4-.2 5.8-.2c.7 0 .9.1.9.5 0 .2-.2.4-.5.4-.4 0-.8.1-1.5.2-1.6.3-2.1 1.3-2.2 3.4-.1 1.9-.1 3.6-.1 12.8l-.1 10.3zM218.5 423.2c-.8-.4-.9-.7-.9-2.3 0-3 .2-5.3.3-6.3.1-.7.2-.9.5-.9.4 0 .4.2.4.7s0 1.4.2 2.2c.9 4.4 4.8 6 8.8 6 5.7 0 8.5-4.1 8.5-7.9 0-4.1-1.7-6.5-6.8-10.7l-2.7-2.2c-6.3-5.2-7.7-8.8-7.7-12.9 0-6.3 4.7-10.7 12.3-10.7 2.3 0 4 .2 5.5.6 1.1.2 1.6.3 2.1.3s.6.1.6.4-.2 2.3-.2 6.3c0 .9-.1 1.4-.4 1.4-.4 0-.4-.3-.5-.8-.1-.7-.4-2.3-.8-3s-2-3.1-7.4-3.1c-4.1 0-7.3 2.5-7.3 6.9 0 3.4 1.5 5.5 7.2 10l1.7 1.3c7 5.5 8.7 9.2 8.7 13.9 0 2.4-.9 6.9-5 9.8-2.5 1.8-5.8 2.5-9 2.5-2.9.2-5.6-.3-8.1-1.5zM299.8 416.4c.2 2.1.7 5.5 3.2 6.3 1.7.5 3.3.5 3.9.5.3 0 .5.1.5.3 0 .4-.5.5-1.2.5-1.3 0-7.7-.2-9.9-.4-1.4-.1-1.7-.3-1.7-.6 0-.2.1-.4.4-.4.3-.1.4-1.1.2-2.1l-2.8-30.6h-.2l-14.6 30.9c-1.2 2.6-1.4 3.1-2 3.1-.4 0-.7-.6-1.8-2.7-1.5-2.9-6.6-13.2-6.9-13.8-.5-1.1-7.2-15.3-7.8-16.9h-.2l-2.4 27.5c-.1.9-.1 2-.1 3 0 .9.7 1.7 1.5 1.8 1 .2 1.9.3 2.3.3.2 0 .5.1.5.3 0 .4-.4.5-1.1.5-2.2 0-5-.2-5.5-.2s-3.4.2-5 .2c-.6 0-1-.1-1-.5 0-.2.3-.3.6-.3.5 0 .9 0 1.8-.2 2-.4 2.1-2.7 2.4-4.9l4.3-38.7c.1-.7.3-1.1.7-1.1.4 0 .6.2.9.9l18.1 37.3 17.4-37.2c.2-.5.5-.9.9-.9s.6.5.7 1.6l3.9 36.5zM317.9 396.4c0-9.2 0-10.9-.1-12.8-.1-2-.6-3-2.5-3.4-.5-.1-1.5-.2-2-.2-.2 0-.5-.1-.5-.4 0-.4.3-.5.9-.5 1.4 0 3 0 4.3.1l2.4.1c.4 0 12.2 0 13.6-.1 1.1-.1 2.1-.2 2.5-.3.3-.1.5-.3.8-.3.2 0 .2.2.2.5 0 .4-.3 1.1-.5 2.8-.1.6-.2 3.2-.3 3.9-.1.3-.2.7-.4.7-.4 0-.5-.3-.5-.8 0-.4-.1-1.4-.4-2.1-.4-.9-1-1.7-4.2-2-1-.1-7.5-.2-8.1-.2-.2 0-.4.2-.4.6v16.4c0 .4.1.6.4.6.8 0 8.1 0 9.4-.1 1.4-.1 2.3-.2 2.8-.8.4-.5.7-.8.9-.8.2 0 .3.1.3.5s-.3 1.4-.5 3.3c-.1 1.2-.2 3.4-.2 3.8 0 .5 0 1.1-.4 1.1-.3 0-.4-.2-.4-.5 0-.6 0-1.2-.2-2s-.8-1.8-3.1-2.1c-1.6-.2-7.5-.3-8.5-.3-.3 0-.4.2-.4.4v5.2c0 2-.1 8.9 0 10.1.2 4.1 1.1 4.9 6.9 4.9 1.5 0 4.2 0 5.7-.7s2.3-1.8 2.7-4.3c.1-.7.2-.9.5-.9.4 0 .4.5.4.9 0 .5-.5 4.5-.8 5.8-.4 1.5-.9 1.5-3.2 1.5-4.4 0-7.7-.1-10-.2s-3.7-.2-4.6-.2c-.1 0-1.1 0-2.4.1-1.2 0-2.5.1-3.4.1-.7 0-.9-.1-.9-.5 0-.2.1-.4.5-.4.5 0 1.2-.1 1.8-.2 1.2-.2 1.5-1.5 1.7-3.3.3-2.5.3-7.2.3-12.9l-.1-10.1z"/></g></svg>