<svg id="Calque_1" xmlns="http://www.w3.org/2000/svg" viewBox="0 0 151.9 60.8"><path d="M70.1 35.8c0 .8.8 1.2 1.6 1.2 1.5 0 2.3-.8 2.3-2.1v-.5h-.5c-1.3 0-3.4.1-3.4 1.4zm31.4-4.9c-1.3 0-2.2.8-2.3 2.1h4.6c0-1.2-.9-2.1-2.3-2.1zm-73.2 5.8c1.7 0 2.7-1.3 2.7-2.7 0-1.4-1-2.7-2.7-2.7s-2.7 1.3-2.7 2.7c.1 1.4 1.1 2.7 2.7 2.7zm-12.6-.9c0 .8.8 1.2 1.6 1.2 1.5 0 2.3-.8 2.3-2.1v-.5h-.5c-1.3 0-3.4.1-3.4 1.4zm35.7 0c0 .8.8 1.2 1.6 1.2 1.5 0 2.3-.8 2.3-2.1v-.5h-.5c-1.3 0-3.4.1-3.4 1.4z" fill="none"/><path class="st1" d="M151.3 22c-.5-.4-.9-.9-1.3-1.5-1.1-1.4-2.1-2.1-3.3-2.3-.7-.1-1.9-.2-3.7 1-2.9 2.6-6.3 1.6-4.6-2.1 1-1.9 2.4-2.6 3.9-5.6 2.1-3.9 1.4-5.5.3-10 0 0-.6-2.1-1-1.1-.4.9-.3 3.8-.3 3.8-.4-.7-.3-2.4-.6-2.4-.6.1-.7 1.1-.7 2.5 0 .2 0 .3-.1.2-.5-1.1-.1-1.9-1.5-.9-1.3.9-1.9 1.4-4.7 4.1-1.3 1.2-4.3 4.5-4.8 6.4-.1.5-.3.9 0 1.7-.2.1-.4.2-.5.3-.2.2-.3.3-.3.4-.1.5.3.7.9 1.1 0 0 0 .1-.1.1-.5.4-.8.1-1 .5-.2.5.3 1 .4 1.1.1.1.2.1.1.2-.5 1.2-1.3 1.4-3.8 1.4-7.2.1-13-3.1-20.4-3.4-1.9-.1-4.3 0-5.8.5 0 0-.1.1.5.1 5 .2 10.3.7 14.3 2.4.1.1.1.2 0 .2-.1.3-1.3 0-1.8.1-.4.2 1.4.8 2.1 1.2-8.7-1-18.2-.5-24 3-.1 0-.5.3-.5.5l.2.2c.2.1.4.1.7.1 1.4 0 3.4-1.8 7.8-2.6 9-1.7 16.5 1.4 22.6 3.4 1.8.6 4.6 2.1 5.7 3.2-.8.5-1.5.2-1.7.7-.2.4 0 1.2.9 1.5-.3.7-1.1.3-1.5.4-.2 0-.4.2-.3.5.1.2.4.7.9.8-.1 1.1-1.6.3-1.8 1.6 0 .4-1 3.1-2.5 4.2-.1 0-.1.1-.1.1 0 .1.1.2.1.2.1 1.1-2.3 2-3.1 2.7-.3.5.7.2.4.7 0 .1-2.2 1.1-3 1.6-.3.2-.8.5-.6.7.2.2 1.1-.1 1.6-.2 0 0 .1 0 0 0l-.1.1c-1.1.8-2.9 1.3-4 2.1-.1.1-.3.3-.3.5s.3.3.6.3c-.6.9-2.6 1.1-3.5 1.4-.3.1-.4.2-.4.3 0 .1.2.2.7.2 1.8-.1 4.8-.7 6.6-1.3 5.8-1.9 12.4-4.4 15.9-9 2.3-3 2.1-3.1 3.8-7.1.5-.8.4-.7.7-.7l.6-.1c3.9-.2 5.9-.4 8.6-2.9.7-.6 1.4-1.3 2.4-2.5.3-.4.9-1.1 1.9-2.5.6-.8 1.1-1.2 1.5-1.5.5-.1 1.8-.4 1.8-.4-.2.1-.5-.1-.8-.2zM7 38.8c2 0 3.8-.7 5-2.4L10 35c-.9 1.1-1.9 1.6-3 1.6-2.7 0-4.6-2.1-4.6-4.9C2.5 29.1 4.3 27 7 27c.9 0 1.8.3 2.8 1.3l1.8-1.4c-1.3-1.5-2.9-2.1-4.7-2.1-4.1 0-7 2.8-7 7 .1 4.2 3 7 7.1 7zm12.1-5.9c-2.3 0-5.7.2-5.7 3.1 0 1.8 1.6 2.7 3.3 2.7 1.2 0 2.3-.5 2.9-1.5h.1v1.2h2v-5.2c0-1.3 0-4.1-3.9-4.1-1.4 0-2.8.4-3.8 1.4l1.2 1.2c.6-.6 1.5-.9 2.4-.9 1.2 0 2.1.6 2.1 1.7v.2h-.6zm.4 2.1c0 1.3-.7 2.1-2.3 2.1-.7 0-1.6-.4-1.6-1.2 0-1.3 2.1-1.4 3.4-1.4h.5v.5zm6.3 2.3c.5.6 1.4 1.4 3.1 1.4 2.6 0 4.4-2.1 4.4-4.7 0-2.7-1.7-4.7-4.5-4.7-1.3 0-2.4.5-3.1 1.6v-1.4h-2.1v13.3h2.3v-5.5zm2.5-6c1.7 0 2.7 1.3 2.7 2.7 0 1.4-1 2.7-2.7 2.7s-2.7-1.3-2.7-2.7c.1-1.4 1.1-2.7 2.7-2.7zm6.8-6.1H37v5h-1.9zm9.8 13.3l3.6-9h-2.4l-2.4 6.3-2.4-6.3h-2.5l3.7 9zm9.9-5.6c-2.3 0-5.7.2-5.7 3.1 0 1.8 1.6 2.7 3.3 2.7 1.2 0 2.3-.5 2.9-1.5h.1v1.2h2v-5.2c0-1.3 0-4.1-3.9-4.1-1.4 0-2.8.4-3.8 1.4l1.2 1.2c.6-.6 1.5-.9 2.4-.9 1.2 0 2.1.6 2.1 1.7v.2h-.6zm.4 2.1c0 1.3-.7 2.1-2.3 2.1-.7 0-1.6-.4-1.6-1.2 0-1.3 2.1-1.4 3.4-1.4h.5v.5zm8.5 3.7c.8 0 2.3-.3 3.3-1.3l-1.5-1.6c-.4.5-1.1.8-1.7.8-1.8.1-2.8-1.2-2.8-2.6 0-1.4 1-2.7 2.7-2.7.6 0 1.2.4 1.7.9l1.6-1.6c-.9-1-2.1-1.4-3.3-1.4-2.7 0-4.9 1.9-4.9 4.7 0 2.9 2.2 4.8 4.9 4.8zm9.8-5.8c-2.3 0-5.7.2-5.7 3.1 0 1.8 1.6 2.7 3.3 2.7 1.2 0 2.3-.5 2.9-1.5v1.2h2v-5.2c0-1.3 0-4.1-3.9-4.1-1.4 0-2.8.4-3.8 1.4l1.2 1.2c.6-.6 1.5-.9 2.4-.9 1.2 0 2.1.6 2.1 1.7v.2h-.5zm.4 2.1c0 1.3-.7 2.1-2.3 2.1-.7 0-1.6-.4-1.6-1.2 0-1.3 2.1-1.4 3.4-1.4h.5v.5zm9.2-5.8c-1.5 0-2.3.8-2.8 1.7v-1.4h-2.1v9h2.3v-4.9c0-1.2.6-2.3 2.1-2.3 1.6 0 1.7 1.7 1.7 2.7v4.6h2.3v-5.7c-.2-1.9-1-3.7-3.5-3.7z"/><path class="st1" d="M92.9 31.3c.6 0 1.2.4 1.7.9l1.6-1.6c-.9-1-2.1-1.4-3.3-1.4-2.7 0-4.9 1.9-4.9 4.7 0 2.8 2.2 4.7 4.9 4.7.8 0 2.3-.3 3.3-1.3l-1.5-1.6c-.4.5-1.1.8-1.7.8-1.7 0-2.7-1.3-2.7-2.7-.1-1.2.9-2.5 2.6-2.5zm8.9-2.1c-2.7 0-4.9 1.9-4.9 4.7 0 2.8 2.2 4.7 4.9 4.7 1.4 0 2.8-.5 3.8-1.8l-1.6-1.2c-.6.7-1.3 1.2-2.4 1.2-1.3 0-2.3-.8-2.4-2.1h6.9v-.6c0-3.1-1.7-4.9-4.3-4.9zm-2.6 3.9c.2-1.3 1-2.1 2.3-2.1 1.4 0 2.3.8 2.3 2.1h-4.6zm11.7 3.9c-1 0-1.6-.5-2.1-1.1l-1.5 1.4c.9 1 2.1 1.4 3.5 1.4 1.8 0 3.9-.8 3.9-2.9 0-3.5-4.9-2.2-4.9-3.8 0-.7.7-1 1.3-1 .8 0 1.3.3 1.8.9l1.5-1.4c-.7-1-2-1.4-3.2-1.4-1.8 0-3.6.9-3.6 2.9 0 3.4 4.9 2 4.9 3.8-.1.9-.9 1.2-1.6 1.2zm-34.3 5c-11.6 8.4-13.7 9.1-13.7 9.1-28.9 16.5-61-4.4-61-4.4C19.3 65 44.8 64 64.8 52.2c3-1.8 4.7-2.7 6.8-4.4 0 0 3.2-2.4 5.8-5 1.4-1.4-.6-.9-.8-.8z"/></svg>