<?xml version="1.0" encoding="utf-8"?>
<svg version="1.1" xmlns="http://www.w3.org/2000/svg" xmlns:xlink="http://www.w3.org/1999/xlink" x="0px" y="0px"
	 viewBox="0 0 245.9 117.5" style="enable-background:new 0 0 245.9 117.5;">
<g id="Calque_2">
	<g id="Calque_2-2">
		<path class="st0" d="M0.7,56.4h1.8V45.2H0.7V45h3.4h0.5h1c0.7,0,1.4,0.1,2,0.3c0.4,0.2,0.9,0.4,1.2,0.7c0.3,0.2,0.5,0.6,0.6,0.9
			c0.1,0.3,0.2,0.6,0.2,0.9c0,0.3-0.1,0.7-0.2,1c-0.2,0.3-0.4,0.6-0.6,0.8c-0.3,0.2-0.6,0.4-0.9,0.6c-0.4,0.1-0.7,0.2-1.1,0.3l0,0
			c0.4,0,0.8,0.1,1.2,0.3C8.3,50.8,8.7,51,9,51.2c0.3,0.2,0.6,0.6,0.8,0.9c0.2,0.4,0.3,0.8,0.3,1.2c0,0.5-0.1,0.9-0.3,1.3
			c-0.2,0.4-0.5,0.8-0.8,1.1c-0.4,0.3-0.9,0.6-1.4,0.7c-0.7,0.2-1.3,0.3-2,0.3H5.1H4.7H4.2H0.7V56.4z M4.2,50.3h1.5
			c0.3,0,0.6,0,0.8-0.1C6.8,50.1,7,50,7.2,49.8c0.2-0.2,0.3-0.5,0.4-0.8c0.1-0.4,0.2-0.8,0.2-1.2c0-0.5-0.1-0.9-0.2-1.4
			c-0.1-0.3-0.3-0.6-0.6-0.8c-0.2-0.2-0.5-0.3-0.8-0.3c-0.3-0.1-0.6-0.1-0.9-0.1H4.7c-0.2,0-0.3,0-0.5,0L4.2,50.3z M4.2,56.4h0.4
			c0.2,0,0.4,0,0.7,0c0.4,0,0.9,0,1.3-0.2C7,56.2,7.3,56,7.5,55.7c0.3-0.3,0.4-0.6,0.5-1c0.1-0.5,0.2-1,0.2-1.5
			c0-0.7-0.2-1.5-0.6-2.1c-0.4-0.5-1-0.7-1.6-0.7H4.2V56.4z"/>
		<path class="st0" d="M14.9,56.4h1.8V45.2h-1.8V45h9.4v2.8h-0.2c-0.1-0.4-0.3-0.8-0.5-1.1c-0.2-0.3-0.3-0.6-0.6-0.8
			c-0.2-0.2-0.5-0.4-0.8-0.5c-0.4-0.1-0.8-0.2-1.1-0.2h-2.7v5.1h1.1c0.3,0,0.6,0,0.9-0.1c0.2-0.1,0.5-0.2,0.6-0.4
			c0.2-0.2,0.4-0.5,0.5-0.7c0.2-0.4,0.3-0.8,0.4-1.2H22V53h-0.2c-0.1-0.3-0.2-0.6-0.2-0.9c-0.1-0.3-0.2-0.5-0.3-0.8
			c-0.1-0.2-0.4-0.4-0.6-0.5c-0.3-0.2-0.7-0.2-1-0.2h-1.3v5.9h3.1c0.5,0,1.1-0.2,1.5-0.5c0.4-0.2,0.7-0.6,1-0.9
			c0.2-0.3,0.4-0.7,0.5-1.1c0.1-0.3,0.2-0.6,0.2-1h0.2v3.6h-10L14.9,56.4z"/>
		<path class="st0" d="M29.7,56.4h1.8V45.2h-1.8V45h3.5h0.4h0.8c0.6,0,1.1,0,1.7,0.1c0.5,0.1,1,0.3,1.4,0.6c0.4,0.3,0.6,0.6,0.8,1
			c0.1,0.3,0.2,0.7,0.2,1c0,0.2,0,0.4-0.1,0.6c-0.1,0.3-0.2,0.6-0.4,0.8c-0.2,0.3-0.5,0.6-0.9,0.7c-0.5,0.2-1,0.4-1.5,0.5l0,0
			l0.7,0.1c0.3,0.1,0.6,0.2,0.9,0.3c0.3,0.1,0.6,0.3,0.9,0.6c0.3,0.2,0.5,0.6,0.6,0.9c0.1,0.2,0.1,0.5,0.1,0.8c0,0.3,0,0.6,0.1,0.9
			c0,0.3,0,0.6,0,0.8c0,0.2,0,0.5,0.1,0.7c0.1,0.3,0.2,0.5,0.3,0.8c0.1,0.2,0.4,0.4,0.7,0.3c0.2,0,0.3,0,0.4-0.1
			c0.2-0.1,0.3-0.1,0.4-0.3l0.2,0.2l-0.2,0.1c-0.1,0.1-0.2,0.1-0.3,0.1c-0.1,0.1-0.3,0.1-0.4,0.1c-0.2,0-0.4,0-0.6,0
			c-0.4,0-0.7,0-1.1-0.2c-0.3-0.1-0.5-0.3-0.7-0.5c-0.2-0.2-0.3-0.5-0.4-0.8c-0.1-0.4-0.1-0.7-0.2-1.1l-0.1-1.5
			c0-0.4-0.1-0.9-0.3-1.3c-0.1-0.3-0.4-0.5-0.6-0.7c-0.2-0.1-0.5-0.2-0.7-0.3c-0.2,0-0.4,0-0.7,0h-1.6v5.9H35v0.2h-5.3V56.4z
			 M33.2,50.3h1.5c0.3,0,0.6,0,0.8-0.1c0.2-0.1,0.5-0.2,0.7-0.4c0.2-0.2,0.3-0.5,0.4-0.8c0.1-0.4,0.2-0.8,0.2-1.2
			c0-0.5-0.1-0.9-0.2-1.4c-0.1-0.3-0.3-0.6-0.6-0.8c-0.2-0.2-0.5-0.3-0.8-0.3c-0.3-0.1-0.6-0.1-0.9-0.1h-0.6c-0.2,0-0.3,0-0.5,0
			V50.3z"/>
		<path class="st0" d="M57,52.5h-1.3v3.7h-0.2c-0.1-0.1-0.2-0.2-0.3-0.3c-0.1-0.1-0.2-0.1-0.4-0.1c-0.2,0-0.4,0.1-0.6,0.2l-0.7,0.3
			c-0.3,0.1-0.6,0.3-0.9,0.3c-0.4,0.1-0.9,0.2-1.3,0.2c-0.7,0-1.4-0.1-2.1-0.4c-0.7-0.3-1.2-0.7-1.7-1.2c-0.6-0.6-1-1.2-1.4-1.9
			c-0.4-0.8-0.6-1.6-0.5-2.5c0-0.6,0.1-1.1,0.2-1.7c0.1-0.5,0.3-0.9,0.5-1.3c0.2-0.3,0.4-0.6,0.6-0.9c0.2-0.3,0.4-0.5,0.5-0.6
			c0.5-0.5,1.1-0.9,1.7-1.2c0.7-0.3,1.4-0.5,2.2-0.5c0.3,0,0.7,0,1,0.1c0.2,0.1,0.5,0.1,0.7,0.2l0.5,0.2c0.2,0.1,0.3,0.1,0.5,0.1
			c0.2,0,0.3,0,0.5-0.1c0.1-0.1,0.2-0.2,0.3-0.3h0.3v3.3h-0.2c-0.1-0.3-0.1-0.7-0.3-1c-0.1-0.4-0.3-0.8-0.6-1.1
			c-0.3-0.4-0.7-0.7-1.1-0.9c-0.5-0.3-1.1-0.4-1.7-0.4c-0.7,0-1.4,0.1-2,0.5c-0.5,0.3-0.9,0.8-1.2,1.4c-0.3,0.6-0.5,1.2-0.6,1.9
			c-0.1,0.7-0.1,1.4-0.1,2.2c0,0.5,0,1,0.1,1.5c0,0.5,0.1,0.9,0.2,1.4c0.1,0.4,0.2,0.8,0.4,1.2c0.2,0.4,0.4,0.7,0.7,1
			c0.3,0.3,0.6,0.5,1,0.6c0.4,0.1,0.9,0.2,1.4,0.2c0.3,0,0.7-0.1,1-0.2c0.3-0.1,0.6-0.3,0.9-0.5c0.3-0.2,0.5-0.5,0.7-0.9
			c0.2-0.4,0.3-0.8,0.3-1.3v-1.4H52v-0.2h5V52.5z"/>
		<path class="st0" d="M61.1,56.4H63V45.2h-1.9V45h9.4v2.8h-0.2c-0.1-0.4-0.3-0.8-0.5-1.1c-0.2-0.3-0.3-0.6-0.6-0.8
			c-0.2-0.2-0.5-0.4-0.8-0.5c-0.4-0.1-0.8-0.2-1.2-0.2h-2.7v5.1h1.1c0.3,0,0.6,0,0.9-0.1c0.2-0.1,0.5-0.2,0.7-0.4
			c0.2-0.2,0.4-0.5,0.5-0.7c0.2-0.4,0.3-0.8,0.4-1.2h0.2V53h-0.2c-0.1-0.3-0.2-0.6-0.2-0.9c-0.1-0.3-0.2-0.5-0.3-0.8
			c-0.1-0.2-0.4-0.4-0.6-0.5c-0.3-0.2-0.7-0.2-1-0.2h-1.3v5.9h3.1c0.5,0,1-0.1,1.5-0.4c0.4-0.2,0.7-0.6,1-0.9
			c0.2-0.4,0.4-0.7,0.5-1.2c0.1-0.3,0.2-0.6,0.2-1h0.2v3.6h-10L61.1,56.4z"/>
		<path class="st0" d="M75.9,56.4h1.8V45.2h-1.8V45h3.5h0.4h0.8c0.6,0,1.1,0,1.7,0.1c0.5,0.1,1,0.3,1.4,0.6c0.4,0.3,0.6,0.6,0.8,1
			c0.1,0.3,0.2,0.7,0.2,1c0,0.2,0,0.4-0.1,0.6c-0.1,0.3-0.2,0.6-0.4,0.8c-0.2,0.3-0.5,0.6-0.9,0.7c-0.5,0.2-1,0.4-1.5,0.5l0,0
			l0.7,0.1c0.3,0.1,0.6,0.2,0.9,0.3c0.3,0.1,0.6,0.3,0.9,0.6c0.3,0.2,0.5,0.6,0.6,0.9c0.1,0.2,0.1,0.5,0.1,0.8c0,0.3,0,0.6,0.1,0.9
			c0,0.3,0,0.6,0,0.8c0,0.2,0,0.5,0.1,0.7c0.1,0.3,0.2,0.5,0.3,0.8c0.1,0.2,0.4,0.4,0.7,0.3c0.2,0,0.3,0,0.4-0.1
			c0.2-0.1,0.3-0.1,0.4-0.3l0.2,0.2L87,56.5c-0.1,0.1-0.2,0.1-0.3,0.1c-0.1,0.1-0.3,0.1-0.4,0.1c-0.2,0-0.4,0-0.6,0
			c-0.4,0-0.7,0-1.1-0.2c-0.3-0.1-0.5-0.3-0.7-0.5c-0.2-0.2-0.3-0.5-0.4-0.8c-0.1-0.4-0.1-0.7-0.2-1.1l-0.1-1.5
			c0-0.4-0.1-0.8-0.3-1.2c-0.1-0.3-0.4-0.5-0.6-0.7c-0.2-0.1-0.5-0.2-0.7-0.3c-0.2,0-0.4,0-0.7,0h-1.6v5.9h1.8v0.2h-5.3V56.4z
			 M79.4,50.3h1.5c0.3,0,0.6,0,0.8-0.1c0.2-0.1,0.5-0.2,0.7-0.4c0.2-0.2,0.3-0.5,0.4-0.8c0.1-0.4,0.2-0.8,0.2-1.2
			c0-0.5-0.1-0.9-0.2-1.4c-0.1-0.3-0.3-0.6-0.6-0.8c-0.2-0.2-0.5-0.3-0.8-0.3c-0.3-0.1-0.6-0.1-0.9-0.1H80c-0.2,0-0.3,0-0.5,0
			L79.4,50.3z"/>
		<path class="st0" d="M91.1,56.4h1.8V45.2h-1.8V45h5.3v0.2h-1.8v11.2h1.8v0.2h-5.3V56.4z"/>
		<path class="st0" d="M100.7,56.4h1.8V45.2h-1.8V45h9.3v2.8h-0.2c-0.1-0.4-0.3-0.8-0.5-1.1c-0.2-0.3-0.3-0.6-0.6-0.8
			c-0.2-0.2-0.5-0.4-0.8-0.5c-0.4-0.1-0.8-0.2-1.2-0.2h-2.7v5.1h1.1c0.3,0,0.6,0,0.9-0.1c0.2-0.1,0.5-0.2,0.7-0.4
			c0.2-0.2,0.4-0.5,0.5-0.7c0.2-0.4,0.3-0.8,0.4-1.2h0.2V53h-0.2c-0.1-0.3-0.2-0.6-0.2-0.9c-0.1-0.3-0.2-0.5-0.3-0.8
			c-0.1-0.2-0.4-0.4-0.6-0.5c-0.3-0.2-0.7-0.2-1-0.2H104v5.9h3.1c0.5,0,1-0.1,1.5-0.4c0.4-0.2,0.7-0.6,1-0.9
			c0.2-0.3,0.4-0.7,0.6-1.1c0.1-0.3,0.2-0.6,0.2-1h0.2v3.6h-10L100.7,56.4z"/>
		<path class="st0" d="M123.3,56.4h1.8V45.2h-1.8V45h3.5h0.5h0.9h0.9l0.7,0.1c0.2,0,0.4,0.1,0.6,0.1c0.2,0,0.4,0.1,0.6,0.2
			c0.6,0.2,1.2,0.5,1.7,0.9c0.5,0.3,0.9,0.8,1.2,1.3c0.3,0.5,0.5,1,0.7,1.6c0.1,0.6,0.2,1.2,0.2,1.8c0,0.7-0.1,1.3-0.3,1.9
			c-0.2,0.5-0.4,1.1-0.7,1.5c-0.3,0.4-0.7,0.8-1.1,1.2c-0.4,0.3-0.8,0.6-1.3,0.8c-0.2,0.1-0.5,0.2-0.7,0.3c-0.2,0.1-0.5,0.1-0.7,0.2
			c-0.3,0-0.5,0-0.8,0.1h-1h-0.5h-0.6h-0.6h-3.3L123.3,56.4z M126.8,56.4h0.7h0.8c0.4,0,0.7,0,1.1-0.1c0.3,0,0.7-0.1,1-0.3
			c0.3-0.1,0.7-0.3,0.9-0.5c0.3-0.3,0.6-0.6,0.8-0.9c0.3-0.6,0.6-1.2,0.7-1.8c0.1-0.7,0.2-1.3,0.2-2c0-0.8-0.1-1.6-0.2-2.3
			c-0.1-0.7-0.4-1.3-0.8-1.8c-0.4-0.5-0.9-0.9-1.5-1.2c-0.7-0.3-1.5-0.4-2.3-0.4h-0.7h-0.7L126.8,56.4z"/>
		<path class="st0" d="M139.9,56.4h1.8V45.2h-1.8V45h9.4v2.8h-0.2c-0.1-0.4-0.3-0.8-0.5-1.1c-0.2-0.3-0.3-0.6-0.6-0.8
			c-0.2-0.2-0.5-0.4-0.8-0.5c-0.4-0.1-0.8-0.2-1.1-0.2h-2.7v5.1h1.1c0.3,0,0.6,0,0.9-0.1c0.2-0.1,0.5-0.2,0.6-0.4
			c0.2-0.2,0.4-0.5,0.5-0.7c0.2-0.4,0.3-0.8,0.4-1.2h0.2V53h-0.2c-0.1-0.3-0.2-0.6-0.2-0.9c-0.1-0.3-0.2-0.5-0.3-0.8
			c-0.1-0.2-0.4-0.4-0.6-0.5c-0.3-0.2-0.7-0.2-1-0.2h-1.3v5.9h3.1c0.6,0,1.1-0.1,1.6-0.5c0.4-0.2,0.7-0.6,1-0.9
			c0.2-0.3,0.4-0.7,0.6-1.1c0.1-0.3,0.2-0.6,0.2-1h0.2v3.6h-10L139.9,56.4z"/>
		<path class="st0" d="M0.2,86.5h3.4V65.6H0.2v-0.4h17.5v5.3h-0.3c-0.2-0.7-0.5-1.4-0.9-2.1c-0.3-0.6-0.7-1.1-1.1-1.5
			c-0.4-0.4-0.9-0.7-1.5-0.9c-0.7-0.2-1.4-0.3-2.1-0.3H6.6v9.9h2c0.6,0,1.1,0,1.7-0.2c0.5-0.1,0.9-0.4,1.2-0.7
			c0.4-0.4,0.7-0.9,0.9-1.4c0.3-0.7,0.5-1.5,0.6-2.3h0.3v9.5H13c-0.1-0.6-0.3-1.2-0.4-1.7c-0.1-0.5-0.4-1-0.6-1.5
			c-0.3-0.4-0.7-0.8-1.1-1C10.3,76.1,9.7,75.9,9,76H6.6v10.5H10v0.4H0.2V86.5z"/>
		<path class="st0" d="M27.8,76c0-1.6,0.3-3.1,1-4.5c0.6-1.3,1.4-2.6,2.5-3.6c1-1,2.1-1.8,3.4-2.4c1.2-0.6,2.5-0.9,3.8-0.9
			c1.4,0,2.7,0.3,3.9,0.9c1.3,0.6,2.4,1.4,3.4,2.4c1,1,1.8,2.3,2.4,3.6c0.6,1.4,0.9,3,0.9,4.5c0,1.4-0.3,2.9-0.8,4.2
			c-0.5,1.3-1.3,2.6-2.3,3.6c-1,1.1-2.1,1.9-3.4,2.6c-1.3,0.7-2.7,1-4.2,1c-1.5,0-2.9-0.3-4.2-0.9c-1.3-0.6-2.4-1.5-3.4-2.5
			c-1-1.1-1.7-2.3-2.2-3.6C28,78.9,27.8,77.5,27.8,76z M31.3,76c0,1.6,0.1,3.2,0.4,4.8c0.2,1.2,0.6,2.4,1.2,3.4
			c0.5,0.9,1.3,1.6,2.2,2c1,0.5,2.2,0.7,3.3,0.7c1.1,0,2.3-0.2,3.3-0.7c0.9-0.4,1.7-1.1,2.2-2c0.6-1.1,1-2.2,1.2-3.4
			c0.3-1.6,0.4-3.2,0.4-4.8c0-1.4-0.1-2.7-0.3-4.1c-0.2-1.2-0.5-2.4-1-3.5c-0.5-1-1.2-1.8-2.2-2.4c-1.1-0.7-2.3-1-3.6-0.9
			c-1.3-0.1-2.5,0.3-3.6,0.9c-0.9,0.6-1.7,1.5-2.2,2.5c-0.5,1.1-0.9,2.3-1,3.5C31.4,73.3,31.3,74.7,31.3,76z"/>
		<path class="st0" d="M57.8,86.5h3.4V65.6h-3.4v-0.4h6.5l10.3,16.6h0.1V65.6h-3.4v-0.4h7.2v0.4h-3.4v21.7h-0.6L61.7,66.9h-0.1v19.6
			H65v0.4h-7.2V86.5z"/>
		<path class="st0" d="M90.8,86.5h3.4V65.6h-1.8c-0.5,0-0.9,0-1.4,0.1c-0.5,0.1-1.1,0.3-1.5,0.6c-0.6,0.4-1.1,0.9-1.5,1.5
			c-0.6,0.9-1,1.9-1.2,2.9h-0.3v-5.6H105v5.6h-0.3c-0.3-1-0.7-2-1.2-2.9c-0.4-0.6-0.9-1.1-1.5-1.5c-0.5-0.3-1-0.5-1.5-0.6
			c-0.5-0.1-0.9-0.1-1.4-0.1h-1.8v20.9h3.4v0.4h-9.8V86.5z"/>
		<path class="st0" d="M113.1,86.5h3.4V65.6h-3.4v-0.4h6.3h1h0.9h0.9c1.2,0,2.5,0.1,3.7,0.5c0.8,0.3,1.6,0.7,2.3,1.3
			c0.5,0.5,0.9,1,1.1,1.7c0.2,0.5,0.3,1.1,0.3,1.6c0,0.6-0.1,1.3-0.4,1.9c-0.3,0.6-0.7,1.1-1.2,1.5c-0.5,0.4-1.1,0.8-1.7,1
			c-0.6,0.3-1.3,0.4-2,0.5v0.1c0.8,0.1,1.5,0.2,2.2,0.5c0.7,0.2,1.4,0.6,2.1,1.1c0.6,0.4,1.1,1,1.5,1.7c0.4,0.7,0.6,1.5,0.6,2.3
			c0,0.9-0.2,1.7-0.5,2.5c-0.3,0.8-0.9,1.5-1.6,2c-0.8,0.6-1.7,1-2.6,1.3c-1.2,0.3-2.4,0.5-3.7,0.5h-0.8h-0.9h-0.9h-1h-5.3
			L113.1,86.5z M119.6,75h2.8c0.5,0,1-0.1,1.6-0.2c0.5-0.1,0.9-0.4,1.2-0.8c0.4-0.4,0.6-0.9,0.8-1.4c0.2-0.8,0.3-1.5,0.3-2.3
			c0-0.9-0.1-1.7-0.4-2.6c-0.2-0.6-0.6-1.1-1.1-1.4c-0.4-0.3-0.9-0.5-1.5-0.6c-0.5-0.1-1.1-0.1-1.6-0.2h-1.1c-0.3,0-0.7,0-1,0.1
			L119.6,75z M119.6,86.4l0.8,0.1c0.3,0,0.7,0,1.3,0c0.8,0,1.6-0.1,2.4-0.3c0.6-0.2,1.2-0.5,1.7-1c0.5-0.5,0.8-1.1,1-1.8
			c0.2-0.9,0.3-1.9,0.3-2.8c0.1-1.4-0.3-2.7-1-3.8c-0.7-1-1.9-1.5-3.1-1.4h-3.3L119.6,86.4z"/>
		<path class="st0" d="M140.7,76c0-1.6,0.3-3.1,1-4.5c0.6-1.3,1.4-2.6,2.5-3.6c1-1,2.1-1.8,3.4-2.4c1.2-0.6,2.5-0.9,3.8-0.9
			c1.4,0,2.7,0.3,3.9,0.9c1.3,0.6,2.4,1.4,3.4,2.4c1,1.1,1.8,2.3,2.3,3.6c0.6,1.4,0.9,3,0.9,4.5c0,1.4-0.3,2.9-0.8,4.2
			c-0.5,1.3-1.3,2.6-2.3,3.6c-1,1.1-2.1,1.9-3.4,2.6c-1.3,0.7-2.7,1-4.2,1c-1.5,0-2.9-0.3-4.2-0.9c-1.3-0.6-2.4-1.5-3.4-2.5
			c-1-1.1-1.7-2.3-2.2-3.6C141,78.9,140.7,77.5,140.7,76z M144.2,76c0,1.6,0.1,3.2,0.4,4.8c0.2,1.2,0.6,2.4,1.2,3.4
			c0.5,0.9,1.3,1.6,2.2,2c2.1,0.9,4.5,0.9,6.6,0c0.9-0.4,1.7-1.1,2.2-2c0.6-1.1,1-2.2,1.2-3.4c0.3-1.6,0.4-3.2,0.4-4.8
			c0-1.4-0.1-2.7-0.3-4.1c-0.2-1.2-0.5-2.4-1.1-3.5c-0.5-1-1.3-1.8-2.2-2.4c-2.3-1.2-5-1.2-7.2,0c-0.9,0.6-1.7,1.5-2.2,2.5
			c-0.5,1.1-0.9,2.3-1.1,3.5C144.3,73.3,144.2,74.7,144.2,76z"/>
		<path class="st0" d="M170.8,86.5h3.4V65.6h-3.4v-0.4h6.5l10.3,16.6h0.1V65.6h-3.4v-0.4h7.2v0.4h-3.4v21.7h-0.6l-12.9-20.5h-0.1
			v19.6h3.4v0.4h-7.2L170.8,86.5z"/>
		<path class="st0" d="M198.9,86.5h3.4V65.6h-3.4v-0.4h6.5l10.3,16.6h0.1V65.6h-3.4v-0.4h7.2v0.4h-3.4v21.7h-0.6l-12.8-20.5h-0.1
			v19.6h3.4v0.4h-7.2L198.9,86.5z"/>
		<path class="st0" d="M227.3,86.5h3.4V65.6h-3.4v-0.4h17.4v5.3h-0.3c-0.2-0.7-0.5-1.4-0.9-2.1c-0.3-0.6-0.7-1.1-1.1-1.5
			c-0.4-0.4-0.9-0.7-1.5-0.9c-0.7-0.2-1.4-0.3-2.1-0.3h-5.1V75h2c0.6,0,1.1,0,1.7-0.2c0.5-0.1,0.9-0.4,1.2-0.7
			c0.4-0.4,0.7-0.9,0.9-1.4c0.3-0.7,0.5-1.5,0.7-2.2h0.3V80h-0.3c-0.1-0.6-0.3-1.2-0.4-1.7c-0.1-0.5-0.4-1-0.6-1.5
			c-0.3-0.4-0.7-0.8-1.1-1c-0.6-0.3-1.2-0.4-1.8-0.4h-2.5v11h5.8c1,0,1.9-0.2,2.8-0.7c0.7-0.4,1.3-1,1.8-1.7c0.4-0.6,0.8-1.3,1-2.1
			c0.2-0.6,0.3-1.2,0.4-1.8h0.3v6.7h-18.6L227.3,86.5z"/>
		<path class="st0" d="M3.6,110.8c0-0.6-0.4-1-0.9-1c0,0,0,0-0.1,0c-1,0-1,0.8-1,1.3v4.5c0,0.6,0.4,1,0.9,1.1c0,0,0.1,0,0.1,0
			c0.5,0,1-0.2,1-1.2v-0.3h0.9v0.3c0.1,1-0.5,1.9-1.5,2c-0.2,0-0.3,0-0.5,0c-0.9,0.1-1.8-0.6-1.8-1.6c0-0.1,0-0.2,0-0.3v-5
			c0-1,0.8-1.8,1.7-1.8c0,0,0.1,0,0.1,0c0.9-0.1,1.8,0.5,1.9,1.5c0,0.1,0,0.2,0,0.3v0.5H3.6V110.8z"/>
		<path class="st0" d="M17.7,109v3.8h2V109h0.9v8.4h-0.9v-3.9h-2v3.9h-0.9V109H17.7z"/>
		<path class="st0" d="M36.6,117.3l-0.4-1.9h-1.9l-0.4,1.9H33l1.9-8.3h0.8l1.8,8.4L36.6,117.3z M35.3,110.8l-0.8,4h1.6L35.3,110.8z"
			/>
		<path class="st0" d="M49.9,109h0.9l1.8,5.3l0,0l1.7-5.3h0.9v8.4h-0.9v-5.7l0,0l-1.5,4.3h-0.4l-1.5-4.3l0,0v5.7H50L49.9,109z"/>
		<path class="st0" d="M69.7,109c1-0.1,1.9,0.6,2.1,1.6c0,0.1,0,0.2,0,0.3v0.5c0.1,0.7-0.4,1.4-1.1,1.6c0.7,0.2,1.2,0.9,1.1,1.7v0.7
			c0.1,1-0.6,1.9-1.6,2.1c-0.2,0-0.3,0-0.5,0H68V109H69.7z M68.9,112.6h0.7c0.6,0.1,1.2-0.4,1.3-1c0-0.1,0-0.2,0-0.3v-0.5
			c0-0.6-0.5-1.1-1.1-1.1c0,0-0.1,0-0.1,0h-0.8V112.6z M68.9,116.6h0.7c0.7,0,1.3-0.5,1.3-1.4v-0.6c0-0.6-0.4-1.1-1.1-1.2
			c0,0-0.1,0-0.1,0h-0.8L68.9,116.6z"/>
		<path class="st0" d="M86.1,109c0.9,0,2.2,0.1,2.2,2v0.7c0.1,0.8-0.4,1.5-1.2,1.8l1.3,4h-0.9l-1.2-3.8h-1v3.8h-0.9V109H86.1z
			 M85.3,112.8h0.9c0.6,0.1,1.1-0.4,1.2-1c0,0,0-0.1,0-0.1v-0.8c0-1-0.8-1.1-1.3-1.1h-0.8V112.8z"/>
		<path class="st0" d="M100.9,109h3.4v0.8h-2.5v2.9h2.2v0.8h-2.2v3h2.5v0.8h-3.4L100.9,109z"/>
		<path class="st0" d="M119.5,111c0-0.3-0.1-0.6-0.3-0.9c-0.2-0.2-0.5-0.4-0.8-0.3c-0.3,0-0.5,0.1-0.7,0.3c-0.2,0.3-0.3,0.6-0.3,1
			c0,0.3,0.1,0.7,0.2,1c0.2,0.2,0.4,0.4,0.7,0.5l0.8,0.3c0.4,0.1,0.8,0.4,1.1,0.7c0.3,0.4,0.4,0.9,0.3,1.4v0.3
			c0,0.6-0.2,1.3-0.6,1.8c-0.4,0.4-0.9,0.6-1.5,0.5c-0.6,0.1-1.2-0.2-1.6-0.7c-0.2-0.4-0.4-0.9-0.4-1.4v-0.3h0.9v0.2
			c0,0.3,0.1,0.6,0.2,0.9c0.2,0.2,0.5,0.4,0.8,0.3c0.3,0,0.7-0.1,0.9-0.4c0.2-0.3,0.3-0.6,0.2-1v-0.3c0-0.4-0.1-0.7-0.2-1
			c-0.2-0.2-0.4-0.4-0.7-0.5l-0.9-0.3c-0.4-0.1-0.8-0.5-1-0.9c-0.1-0.4-0.2-0.8-0.2-1.2v-0.3c0-0.6,0.2-1.1,0.6-1.5
			c0.4-0.3,0.9-0.5,1.4-0.5c1,0,1.9,0.7,1.9,1.8c0,0.1,0,0.2,0,0.3v0.3h-0.9L119.5,111z"/>
		<path class="st0" d="M148.6,109c0.6,0,1.2,0.2,1.6,0.6c0.4,0.5,0.6,1.1,0.5,1.7v3.8c0.1,0.6-0.1,1.2-0.5,1.7
			c-0.4,0.4-1,0.7-1.6,0.6H147V109H148.6z M149.9,115v-3.6c0-0.4-0.1-0.8-0.3-1.2c-0.3-0.3-0.6-0.4-1-0.3h-0.7v6.6h0.7
			c0.4,0,0.7-0.1,1-0.3C149.8,115.8,149.9,115.4,149.9,115L149.9,115z"/>
		<path class="st0" d="M164.3,109v1.1l-0.9,0.9v-2L164.3,109z"/>
		<path class="st0" d="M177.8,109v3.8h2V109h0.9v8.4h-0.9v-3.9h-2v3.9h-0.9V109H177.8z"/>
		<path class="st0" d="M193.4,111.1c-0.1-0.6,0.1-1.3,0.6-1.7c0.8-0.7,2-0.7,2.8,0c0.5,0.5,0.7,1.1,0.6,1.7v4.1
			c0.1,0.6-0.1,1.3-0.6,1.7c-0.8,0.7-2,0.7-2.8,0c-0.5-0.5-0.7-1.1-0.6-1.7V111.1z M196.8,108.2h-0.7l-0.7-0.8l-0.7,0.8h-0.7
			l0.7-1.3h1.4L196.8,108.2z M196.6,110.9c0-0.3-0.1-0.6-0.3-0.9c-0.5-0.4-1.1-0.4-1.6,0c-0.2,0.2-0.3,0.6-0.3,0.9v4.5
			c0,0.3,0.1,0.7,0.3,0.9c0.5,0.4,1.1,0.4,1.6,0c0.2-0.2,0.3-0.6,0.3-0.9V110.9z"/>
		<path class="st0" d="M213.4,109v0.8h-1.6v7.6h-0.9v-7.6h-1.5V109H213.4z"/>
		<path class="st0" d="M225.6,109h3.4v0.8h-2.5v2.9h2.2v0.8h-2.2v3h2.5v0.8h-3.4L225.6,109z"/>
		<path class="st0" d="M244.2,111c0-0.3-0.1-0.6-0.3-0.9c-0.2-0.2-0.5-0.4-0.8-0.3c-0.3,0-0.5,0.1-0.7,0.3c-0.2,0.3-0.3,0.6-0.3,1
			c0,0.3,0.1,0.7,0.2,1c0.2,0.2,0.4,0.4,0.7,0.5l0.8,0.3c0.4,0.1,0.8,0.4,1.1,0.7c0.3,0.4,0.4,0.9,0.3,1.4v0.3
			c0,0.6-0.2,1.3-0.6,1.8c-0.4,0.4-0.9,0.6-1.5,0.5c-0.6,0.1-1.2-0.2-1.6-0.7c-0.2-0.4-0.4-0.9-0.4-1.4v-0.3h0.9v0.2
			c0,0.3,0.1,0.6,0.2,0.9c0.2,0.2,0.5,0.4,0.8,0.3c0.3,0,0.7-0.1,0.9-0.4c0.2-0.3,0.3-0.6,0.2-1v-0.3c0-0.4-0.1-0.7-0.2-1
			c-0.2-0.2-0.4-0.4-0.7-0.5l-0.9-0.3c-0.4-0.1-0.8-0.5-1-0.9c-0.1-0.4-0.2-0.8-0.2-1.2v-0.3c0-0.6,0.2-1.1,0.6-1.5
			c0.4-0.3,0.9-0.5,1.4-0.5c1,0,1.9,0.7,1.9,1.8c0,0.1,0,0.2,0,0.3v0.3h-0.9L244.2,111z"/>
		<line class="st1" x1="0.1" y1="97.8" x2="245.7" y2="97.8"/>
	</g>
	<g id="Calque_3">
		<polyline class="st2" points="0.2,35.3 23.9,27.4 34.8,27.4 47.8,25.3 75.9,13.6 103.2,4 108.7,3.8 111.6,0.6 116.8,1.7 118.9,3 
			121.2,5.8 129.8,5.8 136.4,7.9 143,11.7 146.6,13.8 153.1,14 156.1,15.1 158.9,17.4 170.6,17.4 177.3,18.9 182.7,20.4 186.7,21.8 
			189.2,24 208.1,25 216.9,27 229.8,27 240,34.4 244.9,34.4 		"/>
	</g>
</g>
</svg>
